<svg xmlns="http://www.w3.org/2000/svg" width="100" height="46" fill="none" viewBox="0 0 100 46"><path fill="#000" fill-opacity=".65" fill-rule="evenodd" d="M47.4267 4.55793C43.6614 6.9761 41.5696 9.79055 41.1513 13.0014C40.5001 17.9999 44.9702 20.4466 47.2352 18.2483C49.5001 16.05 48.1424 13.2597 46.5024 12.497C44.8623 11.7343 43.8594 11.9999 44.0343 10.9807C44.2093 9.9615 46.5426 7.1356 48.5925 5.81955C48.7285 5.7039 48.7802 5.4795 48.6493 5.3093C48.5631 5.1973 48.3942 4.97772 48.1424 4.65051C47.9223 4.36438 47.7114 4.37508 47.4267 4.55793Z" clip-rule="evenodd"/><path fill="#000" fill-opacity=".65" fill-rule="evenodd" d="M57.3395 4.55793C53.5742 6.9761 51.4824 9.79055 51.0641 13.0014C50.413 17.9999 54.8831 20.4466 57.148 18.2483C59.413 16.05 58.0553 13.2597 56.4152 12.497C54.7752 11.7343 53.7722 11.9999 53.9472 10.9807C54.1221 9.9615 56.4554 7.1356 58.5053 5.81955C58.6413 5.7039 58.6931 5.4795 58.562 5.3093C58.476 5.1973 58.307 4.97772 58.0553 4.65051C57.8351 4.36438 57.6242 4.37508 57.3395 4.55793Z" clip-rule="evenodd"/><path fill="#000" fill-opacity=".65" d="M35.2695 39.7773C35.2695 38.7812 35.498 37.9941 35.9551 37.416C36.4121 36.834 37.0254 36.543 37.7949 36.543C38.5449 36.543 39.1367 36.7949 39.5703 37.2988L39.6172 36.6602H40.6133V45.4375H39.5293V42.4141C39.0918 42.8828 38.5098 43.1172 37.7832 43.1172C37.0176 43.1172 36.4062 42.8203 35.9492 42.2266C35.4961 41.6289 35.2695 40.8379 35.2695 39.8535V39.7773ZM36.3535 39.9004C36.3535 40.627 36.5059 41.1973 36.8105 41.6113C37.1191 42.0254 37.5332 42.2324 38.0527 42.2324C38.6973 42.2324 39.1895 41.9473 39.5293 41.377V38.2715C39.1855 37.7129 38.6973 37.4336 38.0645 37.4336C37.541 37.4336 37.125 37.6426 36.8164 38.0605C36.5078 38.4746 36.3535 39.0879 36.3535 39.9004ZM46.2676 42.373C45.8457 42.8691 45.2266 43.1172 44.4102 43.1172C43.7344 43.1172 43.2188 42.9219 42.8633 42.5312C42.5117 42.1367 42.334 41.5547 42.3301 40.7852V36.6602H43.4141V40.7559C43.4141 41.7168 43.8047 42.1973 44.5859 42.1973C45.4141 42.1973 45.9648 41.8887 46.2383 41.2715V36.6602H47.3223V43H46.291L46.2676 42.373ZM48.6875 39.7715C48.6875 39.1504 48.8086 38.5918 49.0508 38.0957C49.2969 37.5996 49.6367 37.2168 50.0703 36.9473C50.5078 36.6777 51.0059 36.543 51.5645 36.543C52.4277 36.543 53.125 36.8418 53.6562 37.4395C54.1914 38.0371 54.459 38.832 54.459 39.8242V39.9004C54.459 40.5176 54.3398 41.0723 54.1016 41.5645C53.8672 42.0527 53.5293 42.4336 53.0879 42.707C52.6504 42.9805 52.1465 43.1172 51.5762 43.1172C50.7168 43.1172 50.0195 42.8184 49.4844 42.2207C48.9531 41.623 48.6875 40.832 48.6875 39.8477V39.7715ZM49.7773 39.9004C49.7773 40.6035 49.9395 41.168 50.2637 41.5938C50.5918 42.0195 51.0293 42.2324 51.5762 42.2324C52.127 42.2324 52.5645 42.0176 52.8887 41.5879C53.2129 41.1543 53.375 40.5488 53.375 39.7715C53.375 39.0762 53.209 38.5137 52.877 38.084C52.5488 37.6504 52.1113 37.4336 51.5645 37.4336C51.0293 37.4336 50.5977 37.6465 50.2695 38.0723C49.9414 38.498 49.7773 39.1074 49.7773 39.9004ZM57.2891 35.125V36.6602H58.4727V37.498H57.2891V41.4297C57.2891 41.6836 57.3418 41.875 57.4473 42.0039C57.5527 42.1289 57.7324 42.1914 57.9863 42.1914C58.1113 42.1914 58.2832 42.168 58.502 42.1211V43C58.2168 43.0781 57.9395 43.1172 57.6699 43.1172C57.1855 43.1172 56.8203 42.9707 56.5742 42.6777C56.3281 42.3848 56.2051 41.9688 56.2051 41.4297V37.498H55.0508V36.6602H56.2051V35.125H57.2891ZM62.375 43.1172C61.5156 43.1172 60.8164 42.8359 60.2773 42.2734C59.7383 41.707 59.4688 40.9512 59.4688 40.0059V39.8066C59.4688 39.1777 59.5879 38.6172 59.8262 38.125C60.0684 37.6289 60.4043 37.2422 60.834 36.9648C61.2676 36.6836 61.7363 36.543 62.2402 36.543C63.0645 36.543 63.7051 36.8145 64.1621 37.3574C64.6191 37.9004 64.8477 38.6777 64.8477 39.6895V40.1406H60.5527C60.5684 40.7656 60.75 41.2715 61.0977 41.6582C61.4492 42.041 61.8945 42.2324 62.4336 42.2324C62.8164 42.2324 63.1406 42.1543 63.4062 41.998C63.6719 41.8418 63.9043 41.6348 64.1035 41.377L64.7656 41.8926C64.2344 42.709 63.4375 43.1172 62.375 43.1172ZM62.2402 37.4336C61.8027 37.4336 61.4355 37.5938 61.1387 37.9141C60.8418 38.2305 60.6582 38.6758 60.5879 39.25H63.7637V39.168C63.7324 38.6172 63.584 38.1914 63.3184 37.8906C63.0527 37.5859 62.6934 37.4336 62.2402 37.4336Z"/></svg>